<svg width="143" height="49" viewBox="0 0 143 49" fill="none" xmlns="http://www.w3.org/2000/svg">
<path d="M141.505 48.3906H128.005C127.83 48.3906 127.724 48.1797 127.724 48.0039C127.724 47.8633 127.795 47.6875 127.97 47.6875C131.591 47.3359 133.033 46 133.033 41.8164V9.05078C133.033 7.04688 132.576 6.02734 130.431 6.02734L127.97 6.0625C127.759 6.0625 127.619 5.85156 127.619 5.60547C127.619 5.46484 127.689 5.32422 127.83 5.25391C129.412 4.83203 135.037 1.73828 135.599 1.17578C135.705 1.07031 135.845 1 136.021 1C136.232 1 136.478 1.14062 136.513 1.42188V42.0273C136.548 46.0352 137.955 47.3359 141.541 47.6875C141.716 47.6875 141.787 47.8633 141.787 48.0039C141.787 48.1797 141.681 48.3906 141.505 48.3906Z" fill="#517237" stroke="#517237"/>
<path d="M118.288 48.3906H104.788C104.613 48.3906 104.507 48.1797 104.507 48.0039C104.507 47.8633 104.577 47.6875 104.753 47.6875C108.374 47.3359 109.816 46 109.816 41.8164V9.05078C109.816 7.04688 109.359 6.02734 107.214 6.02734L104.753 6.0625C104.542 6.0625 104.402 5.85156 104.402 5.60547C104.402 5.46484 104.472 5.32422 104.613 5.25391C106.195 4.83203 111.82 1.73828 112.382 1.17578C112.488 1.07031 112.628 1 112.804 1C113.015 1 113.261 1.14062 113.296 1.42188V42.0273C113.331 46.0352 114.738 47.3359 118.323 47.6875C118.499 47.6875 118.57 47.8633 118.57 48.0039C118.57 48.1797 118.464 48.3906 118.288 48.3906Z" fill="#517237" stroke="#517237"/>
<path d="M94.6492 48.3906C93.1375 48.3906 91.9773 47.1602 91.9773 45.6836C91.9773 44.3125 93.1375 43.0117 94.6492 43.0117C95.3875 43.0117 96.0555 43.293 96.5828 43.8203C97.1102 44.3125 97.3914 44.9453 97.3914 45.6836C97.3914 47.2656 96.1961 48.3906 94.6492 48.3906Z" fill="#517237" stroke="#517237"/>
<path d="M58.5648 48.3906C58.0023 48.3906 57.4398 48.3555 56.8773 48.3203L56.9125 47.5117C68.0922 46.7031 74.7016 36.6133 76.9516 26.207C73.8578 30.25 69.3578 32.4648 65.0687 32.4648C59.7953 32.4648 54.8734 29.0898 53.3266 21.6016C53.0805 20.3008 52.9398 18.9648 52.9398 17.6289C52.9398 9.57812 57.6508 1.24609 67.3539 1H67.7406C74.7719 1 81.6977 6.41406 81.6977 18.1211C81.6977 18.7891 81.6625 19.5273 81.6273 20.2656C80.6781 33.6602 72.6625 48.3906 58.5648 48.3906ZM65.9828 31.0586C69.8852 31.0586 74.2094 28.4922 77.3031 24.2734C77.5844 22.7266 77.725 21.1797 77.7953 19.668L77.8305 17.875C77.8305 6.73047 73.0844 2.05469 68.1273 2.05469C67.7406 2.05469 67.3891 2.08984 67.0023 2.125C60.0414 3.10938 56.6312 10.4922 56.6312 17.5938C56.6312 18.7188 56.7016 19.8438 56.8773 20.9336C58.0375 28.0703 61.7641 31.0586 65.9828 31.0586Z" fill="#517237" stroke="#517237"/>
<path d="M21.0391 48.3555C7.67969 48.3555 1 36.5078 1 24.6602C1 12.8477 7.67969 1 21.0391 1C34.3984 1 41.043 12.8477 41.043 24.6602C41.043 36.5078 34.3984 48.3555 21.0391 48.3555ZM21.6719 47.1602C32.1133 47.1602 37.2109 36.543 37.2109 25.6445C37.2109 14.1133 31.4805 2.19531 20.4062 2.19531C9.92969 2.19531 4.83203 12.8125 4.83203 23.7109C4.83203 35.2422 10.5625 47.1602 21.6719 47.1602Z" fill="#517237" stroke="#517237"/>
</svg>
