<svg width="124" height="49" viewBox="0 0 124 49" fill="none" xmlns="http://www.w3.org/2000/svg">
<path d="M122.719 48.3906H109.219C109.043 48.3906 108.938 48.1797 108.938 48.0039C108.938 47.8633 109.008 47.6875 109.184 47.6875C112.805 47.3359 114.246 46 114.246 41.8164V9.05078C114.246 7.04688 113.789 6.02734 111.645 6.02734L109.184 6.0625C108.973 6.0625 108.832 5.85156 108.832 5.60547C108.832 5.46484 108.902 5.32422 109.043 5.25391C110.625 4.83203 116.25 1.73828 116.813 1.17578C116.918 1.07031 117.059 1 117.234 1C117.445 1 117.691 1.14062 117.727 1.42188V42.0273C117.762 46.0352 119.168 47.3359 122.754 47.6875C122.93 47.6875 123 47.8633 123 48.0039C123 48.1797 122.895 48.3906 122.719 48.3906Z" fill="#517237" stroke="#517237"/>
<path d="M99.5016 48.3906H86.0016C85.8258 48.3906 85.7203 48.1797 85.7203 48.0039C85.7203 47.8633 85.7906 47.6875 85.9664 47.6875C89.5875 47.3359 91.0289 46 91.0289 41.8164V9.05078C91.0289 7.04688 90.5719 6.02734 88.4273 6.02734L85.9664 6.0625C85.7555 6.0625 85.6148 5.85156 85.6148 5.60547C85.6148 5.46484 85.6852 5.32422 85.8258 5.25391C87.4078 4.83203 93.0328 1.73828 93.5953 1.17578C93.7008 1.07031 93.8414 1 94.0172 1C94.2281 1 94.4742 1.14062 94.5094 1.42188V42.0273C94.5445 46.0352 95.9508 47.3359 99.5367 47.6875C99.7125 47.6875 99.7828 47.8633 99.7828 48.0039C99.7828 48.1797 99.6773 48.3906 99.5016 48.3906Z" fill="#517237" stroke="#517237"/>
<path d="M75.8625 48.3906C74.3508 48.3906 73.1906 47.1602 73.1906 45.6836C73.1906 44.3125 74.3508 43.0117 75.8625 43.0117C76.6008 43.0117 77.2687 43.293 77.7961 43.8203C78.3234 44.3125 78.6047 44.9453 78.6047 45.6836C78.6047 47.2656 77.4094 48.3906 75.8625 48.3906Z" fill="#517237" stroke="#517237"/>
<path d="M44.243 48.3555C30.8836 48.3555 24.2039 36.5078 24.2039 24.6602C24.2039 12.8477 30.8836 1 44.243 1C57.6024 1 64.2469 12.8477 64.2469 24.6602C64.2469 36.5078 57.6024 48.3555 44.243 48.3555ZM44.8758 47.1602C55.3172 47.1602 60.4149 36.543 60.4149 25.6445C60.4149 14.1133 54.6844 2.19531 43.6102 2.19531C33.1336 2.19531 28.0359 12.8125 28.0359 23.7109C28.0359 35.2422 33.7664 47.1602 44.8758 47.1602Z" fill="#517237" stroke="#517237"/>
<path d="M15.3656 48.3906H1.86563C1.68985 48.3906 1.58438 48.1797 1.58438 48.0039C1.58438 47.8633 1.65469 47.6875 1.83047 47.6875C5.45157 47.3359 6.89297 46 6.89297 41.8164V9.05078C6.89297 7.04688 6.43594 6.02734 4.29141 6.02734L1.83047 6.0625C1.61954 6.0625 1.47891 5.85156 1.47891 5.60547C1.47891 5.46484 1.54922 5.32422 1.68985 5.25391C3.27188 4.83203 8.89688 1.73828 9.45938 1.17578C9.56485 1.07031 9.70547 1 9.88126 1C10.0922 1 10.3383 1.14062 10.3734 1.42188V42.0273C10.4086 46.0352 11.8148 47.3359 15.4008 47.6875C15.5766 47.6875 15.6469 47.8633 15.6469 48.0039C15.6469 48.1797 15.5414 48.3906 15.3656 48.3906Z" fill="#517237" stroke="#517237"/>
</svg>
