<svg width="80" height="80" viewBox="0 0 80 80" fill="none" xmlns="http://www.w3.org/2000/svg">
<mask id="mask0_27_578" style="mask-type:luminance" maskUnits="userSpaceOnUse" x="0" y="0" width="80" height="80">
<path d="M0 0H80V80H0V0Z" fill="white"/>
</mask>
<g mask="url(#mask0_27_578)">
<path d="M33.546 51.1355C12.2515 50.9582 9.54241 44.3964 9.54241 44.3964" stroke="#517237" stroke-width="1.2" stroke-miterlimit="10" stroke-linecap="round" stroke-linejoin="round"/>
<path d="M46.4551 51.1355C67.7485 50.958 70.4576 44.3964 70.4576 44.3964" stroke="#517237" stroke-width="1.2" stroke-miterlimit="10" stroke-linecap="round" stroke-linejoin="round"/>
<path d="M33.5156 64.9539H46.4844" stroke="#517237" stroke-width="1.2" stroke-miterlimit="10" stroke-linecap="round" stroke-linejoin="round"/>
<path d="M11.3096 10.4509V15.2947" stroke="#517237" stroke-width="1.2" stroke-miterlimit="10" stroke-linecap="round" stroke-linejoin="round"/>
<path d="M13.7315 12.8728H8.88773" stroke="#517237" stroke-width="1.2" stroke-miterlimit="10" stroke-linecap="round" stroke-linejoin="round"/>
<path d="M72.1234 19.4053V24.249" stroke="#517237" stroke-width="1.2" stroke-miterlimit="10" stroke-linecap="round" stroke-linejoin="round"/>
<path d="M74.5452 21.8271H69.7015" stroke="#517237" stroke-width="1.2" stroke-miterlimit="10" stroke-linecap="round" stroke-linejoin="round"/>
<path d="M10.8992 56.5319H4.07249L3.81843 63.5785C3.80687 63.8867 3.82109 64.1861 3.85859 64.4753H16.1333C17.7286 60.3982 14.7655 56.5319 10.8992 56.5319Z" stroke="#517237" stroke-width="1.2" stroke-miterlimit="10" stroke-linecap="round" stroke-linejoin="round"/>
<path d="M76.194 63.5787L75.94 56.5321H69.1003C65.234 56.5321 62.2709 60.3984 63.8662 64.4756H76.1537C76.1914 64.1864 76.2054 63.887 76.194 63.5787Z" stroke="#517237" stroke-width="1.2" stroke-miterlimit="10" stroke-linecap="round" stroke-linejoin="round"/>
<path d="M33.546 43.2608H13.2868C9.07724 43.2608 4.70333 47.7263 4.17849 53.5916L3.81833 63.5786C3.80693 63.8869 3.82193 64.186 3.85943 64.4753" stroke="#517237" stroke-width="1.2" stroke-miterlimit="10" stroke-linecap="round" stroke-linejoin="round"/>
<path d="M76.1529 64.4753C76.1905 64.186 76.2054 63.8869 76.194 63.5785L75.8338 53.5914C75.309 47.7263 70.9351 43.2608 66.7255 43.2608H46.4551" stroke="#517237" stroke-width="1.2" stroke-miterlimit="10" stroke-linecap="round" stroke-linejoin="round"/>
<path d="M50.892 60.9821H29.1081C27.5296 60.9821 26.2501 62.2616 26.2501 63.8402V68.9255H53.7501V63.8402C53.7501 62.2616 52.4704 60.9821 50.892 60.9821Z" stroke="#517237" stroke-width="1.2" stroke-miterlimit="10" stroke-linecap="round" stroke-linejoin="round"/>
<path d="M53.75 68.9255H76.6031C77.832 68.9255 78.8281 67.9293 78.8281 66.7004C78.8281 65.4716 77.832 64.4754 76.6031 64.4754H53.75" stroke="#517237" stroke-width="1.2" stroke-miterlimit="10" stroke-linecap="round" stroke-linejoin="round"/>
<path d="M26.25 64.4754H3.39689C2.16798 64.4754 1.17189 65.4715 1.17189 66.7004C1.17189 67.9293 2.16798 68.9255 3.39689 68.9255H26.25" stroke="#517237" stroke-width="1.2" stroke-miterlimit="10" stroke-linecap="round" stroke-linejoin="round"/>
<path d="M46.9983 49.9321C48.8096 49.4336 49.8778 47.5546 49.3796 45.7433C48.9741 44.2691 47.6239 43.2394 46.0964 43.2394C45.7914 43.2394 45.4869 43.2807 45.1911 43.3621C44.6642 43.5071 43.8364 43.8986 43.0058 44.4783C43.285 43.6364 43.4358 42.8149 43.4358 42.2528C43.4358 40.3742 41.9075 38.8458 40.0289 38.8458C38.1503 38.8458 36.6221 40.3742 36.6221 42.2528C36.6221 42.7744 36.7667 43.6203 37.0744 44.5267C36.265 43.953 35.4091 43.5269 34.81 43.3621C34.5142 43.2807 34.2096 43.2394 33.9047 43.2394C32.3771 43.2394 31.0271 44.2691 30.6214 45.7433C30.3802 46.6208 30.4949 47.5397 30.9447 48.3308C31.3944 49.1219 32.1252 49.6907 33.0028 49.9321C33.4505 50.0552 34.0616 50.123 34.7232 50.123C34.8255 50.123 34.9292 50.1211 35.0339 50.1178C34.4053 50.62 33.8758 51.1652 33.5675 51.6271C33.0635 52.383 32.8841 53.2913 33.0627 54.1846C33.2413 55.078 33.7558 55.8477 34.5117 56.3517C35.0736 56.7264 35.7264 56.9246 36.3997 56.9246C37.5425 56.9246 38.603 56.3575 39.2364 55.4077C39.5341 54.9614 39.8141 54.315 40.0289 53.6111C40.2438 54.315 40.5236 54.9614 40.8213 55.4077C41.4547 56.3575 42.5153 56.9246 43.6583 56.9246C44.3313 56.9246 44.9841 56.7266 45.5461 56.3517C46.3032 55.8469 46.8183 55.0774 46.9966 54.1849C47.1749 53.2925 46.995 52.3841 46.4902 51.6271C46.1824 51.1657 45.6535 50.6211 45.0258 50.1194C45.1105 50.1214 45.1949 50.123 45.2782 50.123C45.9399 50.123 46.5508 50.0552 46.9983 49.9321Z" stroke="#517237" stroke-width="1.2" stroke-miterlimit="10" stroke-linecap="round" stroke-linejoin="round"/>
<path d="M40.0289 51.9473C38.021 51.9473 36.3933 50.3196 36.3933 48.3116C36.3933 46.3038 38.021 44.676 40.0289 44.676C42.0367 44.676 43.6646 46.3038 43.6646 48.3116C43.6646 50.3196 42.0367 51.9473 40.0289 51.9473Z" stroke="#517237" stroke-width="1.2" stroke-miterlimit="10" stroke-linecap="round" stroke-linejoin="round"/>
<path d="M14.4605 43.2607L19.0829 29.0723C19.3313 28.31 19.9977 27.7598 20.7932 27.66L23.9557 27.2636L23.9554 27.2606C33.3437 26.2936 46.0523 26.2368 55.9794 27.2537L55.9788 27.2601L59.2109 27.6651C60.0077 27.7651 60.6748 28.317 60.9223 29.0811L65.5134 43.2607" stroke="#517237" stroke-width="1.2" stroke-miterlimit="10" stroke-linecap="round" stroke-linejoin="round"/>
<path d="M21.566 22.8091C19.8306 23.0188 18.8968 23.1785 18.9003 23.178C17.0989 23.404 15.5906 24.6515 15.0309 26.3785L9.09838 44.6873" stroke="#517237" stroke-width="1.2" stroke-miterlimit="10" stroke-linecap="round" stroke-linejoin="round"/>
<path d="M66.4882 31.0664L64.9691 26.3786C64.4096 24.6514 62.9012 23.4039 61.0998 23.1781C61.1099 23.1794 52.9062 21.777 40.0001 21.8286C34.866 21.8081 30.476 22.0177 27.0513 22.2773" stroke="#517237" stroke-width="1.2" stroke-miterlimit="10" stroke-linecap="round" stroke-linejoin="round"/>
<path d="M70.8983 44.6768L68.1722 36.2638" stroke="#517237" stroke-width="1.2" stroke-miterlimit="10" stroke-linecap="round" stroke-linejoin="round"/>
<path d="M43.7985 2.28936C42.3285 2.2864 41.3789 2.86811 40.7968 3.45061C40.343 3.90468 39.6079 3.87921 39.1464 3.43296C38.535 2.84155 37.5571 2.25718 36.0928 2.29077C33.4311 2.35171 31.3775 4.5028 31.4066 7.16499C31.463 12.3506 37.8507 15.5476 39.5752 16.3166C39.846 16.4373 40.1546 16.437 40.4254 16.3162C42.1593 15.5431 48.6019 12.3176 48.5938 7.08593C48.5896 4.41827 46.4661 2.29483 43.7985 2.28936Z" stroke="#517237" stroke-width="1.2" stroke-miterlimit="10" stroke-linecap="round" stroke-linejoin="round"/>
<path d="M5.7657 68.9255V74.3491C5.7657 76.2057 7.2707 77.7107 9.12726 77.7107H14.1101C15.9666 77.7107 17.4716 76.2057 17.4716 74.3491V68.9255" stroke="#517237" stroke-width="1.2" stroke-miterlimit="10" stroke-linecap="round" stroke-linejoin="round"/>
<path d="M62.5407 68.9255V74.3491C62.5407 76.2057 64.0457 77.7107 65.9023 77.7107H70.8851C72.7416 77.7107 74.2466 76.2057 74.2466 74.3491V68.9255" stroke="#517237" stroke-width="1.2" stroke-miterlimit="10" stroke-linecap="round" stroke-linejoin="round"/>
<path d="M9.96331 42.0179V40.9287C9.96331 39.8359 9.07753 38.9501 7.98472 38.9501H3.15034C2.05769 38.9501 1.17191 39.8359 1.17191 40.9287V43.3587C1.17191 44.4514 2.05769 45.3372 3.15034 45.3372H8.26456" stroke="#517237" stroke-width="1.2" stroke-miterlimit="10" stroke-linecap="round" stroke-linejoin="round"/>
<path d="M71.7474 45.3372H76.8496C77.9422 45.3372 78.8282 44.4514 78.8282 43.3586V40.9287C78.8282 39.8359 77.9422 38.9501 76.8496 38.9501H72.0152C70.9225 38.9501 70.0367 39.8359 70.0367 40.9287V42.0178" stroke="#517237" stroke-width="1.2" stroke-miterlimit="10" stroke-linecap="round" stroke-linejoin="round"/>
</g>
</svg>
