<svg width="80" height="80" viewBox="0 0 80 80" fill="none" xmlns="http://www.w3.org/2000/svg">
<g clip-path="url(#clip0_27_433)">
<mask id="mask0_27_433" style="mask-type:luminance" maskUnits="userSpaceOnUse" x="0" y="0" width="80" height="80">
<path d="M0 7.62939e-06H80V80H0V7.62939e-06Z" fill="white"/>
</mask>
<g mask="url(#mask0_27_433)">
<path d="M78.3963 1.25522L65.3022 4.68413C64.9627 4.77319 64.9585 5.2535 65.2964 5.3485L72.3849 7.34022C72.5007 7.37272 72.5908 7.46304 72.6233 7.57866L74.6163 14.683C74.7107 15.0194 75.1882 15.0176 75.2799 14.6805L78.8158 1.6785C78.8852 1.42304 78.6524 1.18819 78.3963 1.25522Z" stroke="#517237" stroke-width="1.2" stroke-miterlimit="10" stroke-linecap="round" stroke-linejoin="round"/>
<path d="M9.23674 62.1762L16.9186 62.7281C17.0886 62.7402 17.2239 62.8751 17.2371 63.0449L17.8256 70.6868C17.8335 70.787 17.7969 70.8854 17.7258 70.9565L10.0275 78.6549C9.81237 78.8701 9.44409 78.7206 9.44002 78.4162L9.33893 70.9657C9.33659 70.7787 9.18502 70.6277 8.99799 70.626L1.51362 70.559C1.20846 70.5563 1.05753 70.1873 1.27331 69.9715L8.96862 62.2762C9.03924 62.2054 9.13706 62.169 9.23674 62.1762Z" stroke="#517237" stroke-width="1.2" stroke-miterlimit="10" stroke-linecap="round" stroke-linejoin="round"/>
<path d="M66.0252 16.6096L73.1563 9.47853" stroke="#517237" stroke-width="1.2" stroke-miterlimit="10" stroke-linecap="round" stroke-linejoin="round"/>
<path d="M17.4054 65.2295L24.6863 57.9484" stroke="#517237" stroke-width="1.2" stroke-miterlimit="10" stroke-linecap="round" stroke-linejoin="round"/>
<path d="M20.9271 56.3654L14.7223 62.5701" stroke="#517237" stroke-width="1.2" stroke-miterlimit="10" stroke-linecap="round" stroke-linejoin="round"/>
<path d="M70.4858 6.80662L62.791 14.5015" stroke="#517237" stroke-width="1.2" stroke-miterlimit="10" stroke-linecap="round" stroke-linejoin="round"/>
<path d="M26.3638 34.3093C26.4448 34.974 25.9713 35.5783 25.3065 35.6593C24.6418 35.7399 24.0374 35.2666 23.9566 34.6019C23.8758 33.9372 24.3491 33.3329 25.0138 33.2519C25.6785 33.1713 26.2829 33.6446 26.3638 34.3093Z" fill="#517237"/>
<path d="M53.6362 34.3093C53.5552 34.974 54.0287 35.5783 54.6935 35.6593C55.3582 35.7399 55.9626 35.2666 56.0433 34.6019C56.1241 33.9372 55.6508 33.3329 54.9862 33.2519C54.3215 33.1713 53.7171 33.6446 53.6362 34.3093Z" fill="#517237"/>
<path d="M24.0727 40.9617C21.0079 39.0781 13.1865 35.4977 4.93225 41.4723C4.55912 41.7423 4.59725 42.3109 5.00193 42.5309L14.5879 47.7458C14.6543 47.7819 14.7265 47.8059 14.8012 47.8166C17.5824 48.2123 20.3829 47.235 22.3138 45.1948L24.3482 43.0456C24.9394 42.4209 24.8054 41.412 24.0727 40.9617Z" stroke="#517237" stroke-width="1.2" stroke-miterlimit="10" stroke-linecap="round" stroke-linejoin="round"/>
<path d="M11.4618 46.0453C8.7582 48.1981 5.34258 49.4378 1.74508 49.3625C1.44133 49.3561 1.25351 49.696 1.4243 49.9474C6.46414 57.3708 16.5101 59.5614 24.2091 54.7914C32.0115 49.9574 34.486 39.7822 29.8355 31.9192C27.6969 28.3036 23.0077 26.9691 19.4048 29.1288C16.7379 30.7275 15.4276 33.7074 15.8201 36.5913C15.8938 37.1338 15.9166 37.6777 15.8954 38.2175" stroke="#517237" stroke-width="1.2" stroke-miterlimit="10" stroke-linecap="round" stroke-linejoin="round"/>
<path d="M51.4655 60.5281C53.5747 59.2096 55.8031 57.6787 57.9912 55.9414" stroke="#517237" stroke-width="1.2" stroke-miterlimit="10" stroke-linecap="round" stroke-linejoin="round"/>
<path d="M22.0085 55.9417C28.3832 61.0034 35.0999 64.3134 38.2171 65.7142C39.3482 66.2225 40.6419 66.2269 41.7729 65.7189C42.9401 65.1948 44.6152 64.4012 46.5894 63.347" stroke="#517237" stroke-width="1.2" stroke-miterlimit="10" stroke-linecap="round" stroke-linejoin="round"/>
<path d="M11.3068 19.3103C8.85785 22.3855 7.39082 26.2764 7.34738 30.5046C7.31535 33.6153 7.88441 36.5403 8.89254 39.2739" stroke="#517237" stroke-width="1.2" stroke-miterlimit="10" stroke-linecap="round" stroke-linejoin="round"/>
<path d="M71.1066 39.2734C72.0433 36.7363 72.6016 34.0336 72.6511 31.17C72.7516 25.3463 70.2244 20.1572 66.1508 16.735C62.9825 14.0734 58.8787 12.4806 54.3486 12.49C46.4772 12.5059 42.555 16.9436 40.9387 19.5252C40.4964 20.2319 39.4678 20.2483 39.0094 19.552C37.2173 16.8294 32.8112 11.9972 24.3298 12.5308C21.0122 12.7394 17.9578 13.8244 15.3814 15.5533" stroke="#517237" stroke-width="1.2" stroke-miterlimit="10" stroke-linecap="round" stroke-linejoin="round"/>
<path d="M55.9273 40.9617C58.9921 39.0781 66.8135 35.4977 75.0677 41.4723C75.4409 41.7423 75.4027 42.3109 74.998 42.5309L65.4121 47.7458C65.3457 47.7819 65.2735 47.8059 65.1988 47.8166C62.4176 48.2123 59.6171 47.235 57.6862 45.1948L55.6518 43.0456C55.0605 42.4209 55.1946 41.412 55.9273 40.9617Z" stroke="#517237" stroke-width="1.2" stroke-miterlimit="10" stroke-linecap="round" stroke-linejoin="round"/>
<path d="M64.1046 38.2176C64.0833 37.6777 64.1062 37.1337 64.1799 36.5913C64.5724 33.7074 63.2621 30.7274 60.5952 29.1288C56.9923 26.9691 52.303 28.3037 50.1644 31.9191C45.514 39.7823 47.9885 49.9574 55.7908 54.7913C63.4899 59.5615 73.5358 57.3708 78.5757 49.9473C78.7465 49.696 78.5587 49.3562 78.2549 49.3626C74.6574 49.4379 71.2418 48.1982 68.5382 46.0454" stroke="#517237" stroke-width="1.2" stroke-miterlimit="10" stroke-linecap="round" stroke-linejoin="round"/>
<path d="M32.0727 38.5876L37.473 33.3942C37.8734 33.0092 37.6207 32.332 37.066 32.3031L29.8405 31.928" stroke="#517237" stroke-width="1.2" stroke-miterlimit="10" stroke-linecap="round" stroke-linejoin="round"/>
<path d="M50.1594 31.928L42.934 32.3031C42.3793 32.332 42.1266 33.0092 42.5269 33.3942L47.9273 38.5876" stroke="#517237" stroke-width="1.2" stroke-miterlimit="10" stroke-linecap="round" stroke-linejoin="round"/>
</g>
</g>
<defs>
<clipPath id="clip0_27_433">
<rect width="80" height="80" fill="white"/>
</clipPath>
</defs>
</svg>
