<svg width="139" height="17" viewBox="0 0 139 17" fill="none" xmlns="http://www.w3.org/2000/svg">
<path d="M0.275467 9.02755C0.496924 8.8572 0.565065 8.68685 0.956873 8.68685C1.07612 8.80609 1.12722 8.80609 1.24647 8.73795C1.29758 8.68685 1.29758 8.5165 1.36572 8.46539C1.53607 8.29504 1.77456 8.24393 1.99602 8.24393C2.57521 8.24393 3.13737 8.65278 3.49511 8.82313C3.66546 8.65278 3.71657 8.60167 4.00617 8.53353C4.05727 8.65278 4.12541 8.82313 4.22762 8.87423C4.22762 9.28308 4.10838 9.38529 4.05727 9.67489C4.73868 9.89634 4.22762 10.8844 4.85792 11.174C4.97717 11.2762 5.19863 11.2762 5.36898 11.3273C5.59043 11.4465 5.77782 11.7361 5.99928 11.7872C6.16963 11.8384 6.40812 11.8383 6.57847 11.9065C6.69772 11.9576 6.74882 12.1961 6.86807 12.2472C7.20877 12.3664 7.37912 12.0257 7.71983 12.1279C7.94128 12.1791 8.29902 12.4687 8.63973 12.4175C8.81008 12.4175 9.09967 12.2472 9.27003 12.1961C9.61073 12.145 9.90033 12.3153 10.0707 12.3664C10.241 12.4175 10.8202 12.2472 11.0417 12.1961C11.3313 12.2472 11.6209 12.2472 11.8934 12.3153C12.0127 12.2642 12.183 11.9746 12.4045 11.8554C13.0348 11.685 13.6651 12.0257 14.2443 12.0768C14.2443 11.9576 14.2954 11.8554 14.4146 11.8554C14.7553 11.685 15.096 12.145 15.556 12.0257C15.6752 11.9746 15.7775 11.7361 15.8456 11.7361C15.9648 11.7361 16.3055 11.6169 16.5951 11.7361C16.5951 11.7361 16.7655 11.8554 16.8166 11.8554C17.2254 11.8554 17.498 11.2762 17.7365 11.174C18.1964 11.174 18.5883 11.174 18.9971 11.174C19.5082 11.0547 20.1385 10.7651 20.6665 10.714C21.0072 10.6629 21.3479 11.0547 21.7568 10.9355C21.9271 10.8844 22.2167 10.714 22.3871 10.6459C22.8981 10.5266 23.4773 10.697 23.9373 10.5266C24.0565 10.4755 24.1076 10.237 24.2269 10.1859C24.4483 10.1348 25.4364 10.0667 25.5386 10.1348C25.6578 10.1348 25.6578 10.3052 25.8793 10.2541C25.9985 10.2541 26.8503 9.91338 26.9695 9.79413C27.1399 9.67489 27.1399 9.50453 27.3102 9.45343C27.4295 9.45343 28.8093 9.33418 28.8093 9.33418C29.0989 9.38529 29.4396 9.55564 29.8996 9.45343C29.9507 9.45343 30.4788 9.28308 30.581 9.23197C30.7513 9.18087 30.8025 8.77202 30.9898 8.77202C31.1772 8.77202 31.5009 8.94237 31.7905 8.89127C31.9097 8.84016 31.9608 8.72092 32.1993 8.77202C32.2504 8.77202 32.3186 8.89127 32.4889 8.82313C32.7785 8.77202 33.0681 8.41428 33.3407 8.36318C33.6303 8.36318 33.9199 8.41429 34.1924 8.41429C34.482 8.41429 36.4241 8.24393 36.5944 8.19283C36.884 8.14172 37.0032 7.78399 37.2247 7.68177C37.7358 7.39218 38.2638 7.85213 38.826 7.73288C38.9453 7.68177 39.1156 7.44328 39.2349 7.39218C39.4563 7.39218 39.6948 7.34107 39.9844 7.27293L40.1548 7.10258L40.2059 7.05147C40.4955 7.00037 40.7851 7.17072 40.9554 7.17072C41.1769 7.11961 41.4665 6.83002 41.7049 6.71077C41.8753 6.76188 42.0457 6.76188 42.216 6.76188C42.5056 6.64263 43.0167 6.42117 43.3063 6.35303C43.4255 6.35303 43.5277 6.40414 43.647 6.40414L43.8173 6.23379C44.3284 6.11454 45.0268 6.45524 45.5379 6.40414C45.6571 6.40414 45.8275 6.23379 45.9467 6.18268C46.0659 6.13158 46.2363 6.18268 46.4578 6.13158C46.6281 6.08047 46.8666 5.84198 47.0369 5.79087C47.2584 5.79087 47.548 5.79087 47.7865 5.79087C47.7865 5.73977 47.8376 5.67163 47.8376 5.62052C48.1272 5.62052 48.4168 5.62052 48.6894 5.56942C48.6894 5.56942 48.8086 5.39906 48.8597 5.39906C49.0301 5.34796 49.0301 5.51831 49.1493 5.45017C49.2004 5.45017 49.3708 5.27982 49.49 5.27982C49.7115 5.33092 50.0011 5.33092 50.2396 5.39906C50.2907 5.39906 50.461 5.22871 50.5292 5.22871C50.6995 5.17761 50.9891 5.27982 51.1084 5.27982C51.3639 5.19464 51.7046 4.85394 51.926 4.7858C52.0964 4.73469 52.3349 4.8369 52.386 4.8369C52.386 4.8369 53.5955 4.71766 53.6977 4.71766C53.7488 4.66655 53.868 4.4962 53.9192 4.42806C54.0895 4.37696 54.5495 4.37696 54.6687 4.30882C54.7879 4.30882 55.0094 4.47917 55.2479 4.42806C55.3671 4.37696 55.4694 4.13846 55.6567 4.13846C55.8271 4.18957 56.0656 4.25771 56.2359 4.30882C56.4574 4.30882 56.8151 3.96811 57.0366 3.89997C57.6158 3.72962 58.2972 3.95108 58.706 3.84887C58.8253 3.84887 59.0467 3.67851 59.1149 3.67851C59.3363 3.67851 59.5748 3.67851 59.7963 3.67851C59.8474 3.62741 59.8474 3.55927 59.9155 3.50816C60.2051 3.38892 60.6651 3.55927 60.8865 3.45706C61.0058 3.45706 61.108 3.2356 61.2272 3.16746C61.7383 2.946 62.8285 3.33781 63.1181 3.28671C63.2374 3.28671 63.3396 3.06525 63.4588 2.99711C63.8677 2.82676 64.498 3.04821 64.9579 2.946C64.9579 2.946 65.1283 2.77565 65.1283 2.72455C65.7586 2.55419 66.0993 3.06525 66.6274 2.946C66.8488 2.8949 67.3769 2.82676 67.5473 2.72455C67.7176 2.6053 67.7176 2.3157 67.9561 2.2646C68.1265 2.21349 68.365 2.3157 68.4161 2.38384C68.6375 2.38384 68.7568 2.2646 68.876 2.2646C69.1656 2.2646 69.3871 2.3157 69.6256 2.3157C70.0855 2.2646 70.2559 2.0261 70.7669 2.0261C70.9373 2.24756 70.9884 2.3157 71.3461 2.3157C72.0957 1.73651 73.6459 1.80465 74.5487 1.6854C74.668 1.6854 74.8383 1.51505 74.8894 1.51505C75.5708 1.29359 76.0989 1.56616 76.61 1.51505C76.7803 1.51505 77.0188 1.29359 77.121 1.29359C77.4617 1.17435 77.581 1.46394 77.8024 1.41284C78.0239 1.41284 78.3135 1.12324 78.552 1.07214C79.4719 1.12324 80.3918 1.19138 81.3117 1.24249C81.6013 1.19138 82.1634 0.901785 82.6234 0.782539C82.9641 0.663293 83.3729 0.901785 83.5433 0.952891C83.5944 0.952891 84.9231 0.901785 84.9742 0.901785C85.0935 0.85068 85.1957 0.680328 85.3149 0.612188C85.6045 0.561082 85.7238 0.731434 85.826 0.782539C85.9452 0.782539 86.9162 0.731434 87.1377 0.731434C88.2791 0.441836 89.4374 0.612188 90.6299 0.32259C90.9706 0.203344 91.141 0.544047 91.4987 0.492942C91.8394 0.373696 92.4697 0.203344 92.7593 0.152239C92.9296 0.101133 92.9808 0.271485 93.1 0.271485C93.3215 0.390731 93.3896 0.152239 93.6111 0.152239C93.9518 0.203344 94.5309 0.612188 95.1612 0.441836C95.2805 0.390731 95.3827 0.220379 95.502 0.152239C95.6723 0.203344 95.8427 0.203344 96.0811 0.203344L96.2004 0.0840981C96.4219 0.0840981 96.7114 0.135203 96.9499 0.135203C97.6313 0.0159575 98.5001 0.25445 99.1815 0.135203C99.9822 0.186309 100.783 0.186309 101.584 0.25445C101.703 0.25445 101.924 0.0840981 101.992 0.0329926C102.282 -0.0862534 102.572 0.152239 102.742 0.203344C103.031 0.32259 103.321 0.152239 103.423 0.0840981C103.713 0.135203 104.002 0.135204 104.275 0.203344C104.497 0.152239 105.774 0.0840981 106.115 0.203344C106.234 0.25445 106.524 0.424801 106.796 0.373696C106.967 0.32259 107.256 0.0329926 107.597 0.152239C107.767 0.203344 108.227 0.561082 108.568 0.441836C108.858 0.32259 109.777 0.101133 110.288 0.271485C111.14 0.492942 111.038 0.680328 112.009 0.441836C112.759 0.271485 113.219 0.952891 114.07 0.731434C114.121 0.731434 114.241 0.561082 114.292 0.561082C114.632 0.441836 115.041 0.731434 115.331 0.85068C115.961 1.02103 116.302 0.731434 116.83 0.901785C117.171 0.901785 117.46 0.901785 117.75 0.901785C117.869 0.952891 117.869 1.19138 117.92 1.19138C118.329 1.36173 118.499 0.901785 118.84 1.02103C119.249 1.19138 119.522 1.48098 120.05 1.60023C120.339 1.71947 120.458 1.42987 120.629 1.37877C121.089 1.42987 121.549 1.49802 122.06 1.54912C122.52 1.71947 123.15 2.00907 123.61 2.06018C123.831 2.11128 124.019 1.83872 124.291 1.88982C124.462 1.94093 124.751 2.29867 124.922 2.34977C125.262 2.46902 125.773 2.06018 126.233 2.23053C126.523 2.34977 126.864 2.63937 127.204 2.74158C127.664 2.79269 128.056 2.79269 128.516 2.86083C128.635 2.91193 128.738 3.08228 128.857 3.15042C128.976 3.09932 129.078 3.03118 129.266 3.03118C129.487 3.08228 129.674 3.44002 129.947 3.49113C130.168 3.54223 130.628 3.26967 130.918 3.32078L131.668 3.61037C131.719 3.72962 131.838 3.83183 131.889 3.89997C132.008 3.95108 132.179 3.78073 132.4 3.95108C132.519 4.00218 132.57 4.24067 132.741 4.35992C133.252 4.58138 133.95 4.47917 134.512 4.64952C134.853 4.81987 135.092 5.33092 135.364 5.50128C135.824 5.72273 136.046 5.38203 136.454 5.55238L137.374 6.23379C137.494 6.52338 137.374 6.69374 137.545 6.91519C137.766 7.2559 138.396 7.54549 138.635 7.95434C138.856 8.36318 138.686 10.4755 138.413 10.9866C138.192 11.1569 137.954 11.2762 137.732 11.4465C137.562 11.7361 137.732 12.0768 137.442 12.2472C137.153 12.4175 136.983 12.3664 136.642 12.3664C136.642 12.4175 136.642 12.5368 136.642 12.5879C136.352 12.7582 136.063 12.8094 135.841 12.8094C134.989 12.8094 134.529 11.8895 133.899 11.2592C133.95 11.0888 133.95 10.9185 133.95 10.7481C134.291 10.5266 135.211 9.43639 135.262 8.97645L135.092 8.75499C134.751 8.46539 134.342 8.07358 133.831 7.90323C133.61 7.90323 133.371 7.90323 133.15 7.90323C132.979 7.90323 132.809 7.68177 132.69 7.61363C132.519 7.61363 132.4 7.61363 132.23 7.61363C132.23 7.61363 131.48 7.27293 131.429 7.27293C131.31 7.10258 131.139 6.93223 131.02 6.81298C130.731 6.76188 130.441 6.69374 130.22 6.69374C129.998 6.64263 129.76 6.35303 129.538 6.28489C129.197 6.16565 128.567 6.45524 128.158 6.23379C128.039 6.06344 127.937 5.94419 127.818 5.82494C127.358 5.53535 127.068 5.82494 126.608 5.82494C126.097 4.97319 125.688 5.65459 124.717 5.36499C124.547 5.31389 124.308 5.0754 124.138 5.02429C123.917 5.02429 123.678 5.02429 123.508 4.97319C123.457 4.92208 123.388 4.80283 123.286 4.75173C122.997 4.63248 122.997 4.97319 122.656 4.92208C122.486 4.87098 122.247 4.63248 122.077 4.58138C121.906 4.46213 121.617 4.58138 121.566 4.58138C121.395 4.63248 120.646 4.53027 120.475 4.41103C120.424 4.41103 120.424 4.35992 120.424 4.29178C120.254 4.34289 120.135 4.34288 120.016 4.41103C119.794 4.35992 119.385 4.07032 119.164 4.00218C118.874 3.88294 118.755 4.22364 118.414 4.17253C118.193 4.05329 117.903 3.95108 117.614 3.83183C117.154 3.88294 116.694 3.88294 116.183 3.88294C115.893 3.76369 115.433 3.59334 115.143 3.47409C114.888 3.40595 114.786 3.76369 114.547 3.69555C113.968 3.64444 113.116 3.35485 112.537 3.18449C112.026 3.06525 111.788 3.2356 111.566 3.35485C111.225 3.47409 110.646 3.18449 110.357 3.18449C110.016 3.13339 109.897 3.35485 109.607 3.2356C109.488 3.2356 109.437 3.01414 109.386 3.01414C108.926 2.84379 108.875 3.2356 108.534 3.18449C108.483 3.13339 108.363 2.96304 108.363 2.96304C108.023 2.84379 107.955 3.08228 107.784 3.13339C107.563 3.25264 107.154 2.96304 106.933 2.91193C106.643 2.86083 106.592 3.08228 106.473 3.08228C106.302 3.03118 106.183 2.96304 106.013 2.96304L105.842 3.08228L105.791 3.13339C105.331 3.25264 104.65 2.79269 104.292 2.84379C104.241 2.84379 104.071 3.01414 104.071 3.06525C103.662 3.11635 103.27 2.8949 103.031 2.8949C102.81 2.84379 102.691 2.946 102.572 3.01414C102.231 3.01414 102.112 2.8949 101.89 2.84379C101.771 3.06525 101.601 3.13339 101.481 3.13339C101.192 3.13339 100.851 2.91193 100.442 2.84379C99.8118 3.13339 99.9311 2.96304 99.3519 2.84379C98.9431 3.06525 98.8408 3.01414 98.3809 3.06525C98.0913 3.06525 97.7506 3.01414 97.461 2.946C97.4099 3.06525 97.3418 3.11635 97.3418 3.16746C97.001 3.21857 96.6603 2.82676 96.2515 2.946C95.9619 2.99711 95.6723 3.2356 95.2124 3.11635C95.042 3.11635 94.7524 2.77565 94.4628 2.82676C94.2925 2.87786 94.2413 3.11635 94.1221 3.16746C93.7814 3.33781 93.4918 2.99711 93.1511 3.11635L92.9808 3.28671C92.8104 3.28671 92.64 3.2356 92.4697 3.2356C92.0097 3.35485 91.2091 3.2356 90.8003 3.28671C90.4596 3.28671 90.0507 3.28671 89.71 3.2356C89.5908 3.28671 89.4885 3.5252 89.3693 3.5763C88.739 3.5252 88.1087 3.47409 87.4784 3.40595C87.1888 3.45706 86.9673 3.5252 86.6777 3.5763C86.4563 3.5763 86.1667 3.5252 85.9282 3.5252C85.8771 3.5252 85.6386 3.69555 85.5875 3.69555C85.4171 3.64444 85.1787 3.64444 85.0083 3.5763C85.0083 3.5763 84.8891 3.74666 84.838 3.79776C84.4972 3.84887 84.0373 3.62741 83.5773 3.74666C83.3559 3.79776 82.9982 3.96811 82.7767 4.03625C82.3679 4.08736 82.1464 3.74665 81.6864 3.8659C81.1073 3.98515 80.477 4.2066 79.8467 4.37696C79.3867 4.42806 79.2164 4.1555 78.8756 4.2066C78.6542 4.2066 78.2453 4.32585 78.075 4.37696C77.8535 4.32585 77.615 4.32585 77.3936 4.25771C77.0529 4.30881 76.5929 4.47917 76.2522 4.54731C76.0819 4.4962 75.8434 4.4962 75.673 4.42806C75.5538 4.47917 75.4516 4.71766 75.3323 4.76876C74.702 4.99022 74.0206 4.47917 73.2711 4.64952C73.0496 4.70062 72.4704 4.76876 72.2319 4.87097C72.1127 4.99022 72.0105 5.09243 71.9423 5.21168C71.5335 5.33092 71.4313 4.92208 71.0906 5.04133C71.0395 5.09243 70.9713 5.21168 70.9202 5.26278C70.5795 5.43313 70.1707 5.14354 69.8811 5.26278C69.7618 5.31389 69.7107 5.38203 69.6596 5.48424C69.5404 5.53535 68.9782 5.60349 68.859 5.65459C68.399 5.7057 68.1776 5.31389 67.7176 5.43314C67.3088 5.48424 67.3769 5.72273 67.2066 5.84198C66.7466 6.13158 66.2867 5.72273 65.8267 5.84198C65.6053 5.96122 65.4179 6.25082 65.1453 6.30193C64.9239 6.30193 64.1062 6.18268 63.8847 6.25082C63.7655 6.25082 63.6633 6.47228 63.5951 6.47228C63.2544 6.59152 63.1352 6.25082 62.7945 6.35303C62.5049 6.40414 61.8746 6.57449 61.585 6.64263C61.4146 6.64263 61.2443 6.59152 61.125 6.59152C60.7162 6.71077 60.3755 7.05147 59.9837 7.10258C59.5237 7.22183 59.183 6.88112 58.8423 7.10258C58.672 7.15368 58.6209 7.44328 58.2631 7.51142C58.1439 7.51142 58.0417 7.46032 57.8543 7.46032C57.735 7.46032 57.5136 7.63067 57.224 7.57956C57.1047 7.52846 57.0025 7.35811 56.764 7.40921C56.6448 7.46032 56.5426 7.74991 56.3552 7.81806C56.1848 7.76695 55.9463 7.76695 55.776 7.76695C55.4353 7.8862 54.9242 8.17579 54.5665 8.2269C54.2258 8.34614 53.6466 8.05655 53.4762 8.17579C53.4251 8.2269 53.357 8.34614 53.357 8.39725C53.2377 8.44836 52.4371 8.68685 52.3178 8.68685C51.9771 8.63574 51.6364 8.63574 51.2787 8.5676C51.0572 8.68685 50.8188 8.97645 50.5292 9.07866C50.0692 9.07866 49.6093 9.07866 49.1493 9.07866C48.8597 9.12976 48.519 9.41936 48.2294 9.4875C47.8206 9.60675 47.548 9.26604 47.1903 9.31715C46.56 9.43639 46.56 9.99855 45.7593 9.99855C45.4186 10.1689 44.8394 9.8282 44.3795 9.99855C44.158 10.1178 43.9195 10.4074 43.6299 10.4585C43.3403 10.5777 43.2211 10.4074 42.9485 10.4585C42.7782 10.5096 42.6589 10.7481 42.4886 10.7481C42.2671 10.7481 41.9775 10.7481 41.739 10.7481C41.6198 10.7992 41.5687 11.0377 41.3983 11.0377C41.3472 11.0888 40.5466 10.9185 40.257 10.9185C39.8481 11.5999 38.9453 11.5999 37.9061 11.5488C37.9061 11.5999 37.9061 11.668 37.9061 11.7702C37.6847 11.8895 37.6847 11.9406 37.2758 11.9406C36.867 11.651 36.4752 12.1109 36.1345 12.162C35.7937 12.2813 35.5553 11.9917 35.2146 12.1109C35.0442 12.162 34.7546 12.3324 34.5332 12.4005C34.3628 12.4005 34.1924 12.4005 33.954 12.4005C33.7836 12.4516 33.7325 12.6901 33.5451 12.7412C33.3237 12.9116 33.0341 12.7412 32.6934 12.8605C32.523 12.9116 32.5741 13.0819 32.2334 13.1501C31.8927 12.8605 30.9728 12.9797 30.6321 13.2012C30.4618 13.3204 30.581 13.4908 30.3425 13.61C30.1722 13.7293 29.5419 14.0188 29.2523 13.8996C29.2012 13.8996 29.0819 13.6781 29.0308 13.6781C28.8604 13.627 28.4005 13.8485 28.2813 13.8485C28.0598 13.8485 27.8724 13.7974 27.651 13.7974C27.0718 13.8485 26.6799 14.2573 26.0496 14.3766C25.9985 14.4958 25.9304 14.6662 25.8282 14.7173C25.6067 14.8876 23.9884 15.2283 23.5284 15.1772C23.307 15.1261 22.6767 14.9558 22.4382 15.0069C22.3871 15.058 22.319 15.1261 22.2678 15.1772C22.0975 15.1772 21.859 15.2283 21.6375 15.2283C21.4161 15.2795 21.0584 15.6372 20.8369 15.6883C20.5473 15.7394 20.2066 15.7394 19.917 15.7394C19.7977 15.7905 19.6955 16.029 19.5082 16.029C19.1674 16.1482 18.8267 15.8075 18.5883 15.8586C18.5371 15.9779 18.469 16.1482 18.4179 16.1993C18.1283 16.3697 17.8387 16.1993 17.498 16.3186C17.0381 16.3697 16.8166 16.7785 16.1182 16.4889C15.8967 16.4378 15.7093 16.2675 15.4879 16.1482C15.4879 16.1993 15.4879 16.2675 15.4879 16.2675C15.3686 16.3867 15.4368 16.4378 15.3686 16.6082C15.0279 16.7785 13.2392 17.017 12.5578 16.8296C12.5067 16.7785 12.3875 16.6593 12.2682 16.6593C11.8594 16.6593 11.178 16.9489 10.7691 16.8296C10.6499 16.7785 10.4795 16.6082 10.3092 16.5401C10.1388 16.5912 9.84922 16.5401 9.62776 16.6593C9.45741 16.7104 9.16781 16.9489 8.94636 17C8.7249 17 8.7249 16.8808 8.60565 16.8296C8.26495 16.8808 7.92425 16.8808 7.56651 16.8808L7.39616 16.7104C7.1747 16.7104 7.1747 16.8808 6.93621 16.8296C6.64661 16.7785 6.35702 16.4889 6.08445 16.4208C6.03335 16.4208 5.96521 16.5401 5.863 16.4719C5.42008 16.3697 4.90903 16.1993 4.56833 16.029C4.10838 15.8586 3.52918 16.029 3.06923 15.7394C3.06923 15.6202 3.01813 15.569 2.94999 15.4498C2.77963 15.2794 2.49004 15.2283 2.31968 15.041C2.20044 14.8706 2.26858 14.6321 2.09823 14.5299C1.63828 14.1892 1.12722 14.3084 0.837627 13.7974C0.54803 13.2863 0.956873 13.0478 0.837627 12.656C0.718381 12.4857 0.428783 12.2472 0.377678 12.0768C0.377678 12.0257 0.377678 12.0257 0.377678 11.9576C0.428783 11.7872 0.428783 11.5488 0.496924 11.3273C0.445819 11.0377 0.207326 10.7481 0.275467 10.4074C0.275467 10.237 0.496924 10.1178 0.565065 9.99855C0.718381 9.55564 0.275467 9.43639 0.275467 9.02755Z" fill="white"/>
</svg>
