<svg width="32" height="32" viewBox="0 0 32 32" fill="none" xmlns="http://www.w3.org/2000/svg">
<circle opacity="0.1" cx="16" cy="16" r="16" fill="#7E6D4B"/>
<path fill-rule="evenodd" clip-rule="evenodd" d="M10 15.3333C10 12.8192 10 11.5621 10.781 10.781C11.5621 10 12.8192 10 15.3333 10H16.6667C19.1808 10 20.4379 10 21.219 10.781C22 11.5621 22 12.8192 22 15.3333V16.6667C22 19.1808 22 20.4379 21.219 21.219C20.4379 22 19.1808 22 16.6667 22H15.3333C12.8192 22 11.5621 22 10.781 21.219C10 20.4379 10 19.1808 10 16.6667V15.3333ZM20 13C20 13.5523 19.5523 14 19 14C18.4477 14 18 13.5523 18 13C18 12.4477 18.4477 12 19 12C19.5523 12 20 12.4477 20 13ZM17.3333 16C17.3333 16.7364 16.7364 17.3333 16 17.3333C15.2636 17.3333 14.6667 16.7364 14.6667 16C14.6667 15.2636 15.2636 14.6667 16 14.6667C16.7364 14.6667 17.3333 15.2636 17.3333 16ZM18.6667 16C18.6667 17.4728 17.4728 18.6667 16 18.6667C14.5272 18.6667 13.3333 17.4728 13.3333 16C13.3333 14.5272 14.5272 13.3333 16 13.3333C17.4728 13.3333 18.6667 14.5272 18.6667 16Z" fill="#7E6D4B"/>
</svg>
