<svg width="32" height="32" viewBox="0 0 32 32" fill="none" xmlns="http://www.w3.org/2000/svg">
<circle opacity="0.1" cx="16" cy="16" r="16" fill="#7E6D4B"/>
<path d="M10 14.0795V10.6799C10 10.3044 10.2985 10 10.6667 10H14C14.3682 10 14.6667 10.3044 14.6667 10.6799V13.3996C14.6667 13.7751 14.3682 14.0795 14 14.0795H12.6667C12.6667 17.0835 15.0545 19.5189 18 19.5189V18.159C18 17.7835 18.2985 17.4791 18.6667 17.4791H21.3333C21.7015 17.4791 22 17.7835 22 18.159V21.5586C22 21.9341 21.7015 22.2385 21.3333 22.2385H18C13.5817 22.2385 10 18.5856 10 14.0795Z" fill="#7E6D4B"/>
</svg>
