<svg width="53" height="60" viewBox="0 0 53 60" fill="none" xmlns="http://www.w3.org/2000/svg">
<path d="M45.5911 60C45.4461 60 45.368 59.8996 45.368 59.777C45.368 59.6543 45.4405 59.5316 45.5409 59.5093C47.303 59.0465 47.671 58.6506 47.6989 56.9833V43.8011H31.21V56.9833C31.21 58.6506 31.5781 59.0409 33.3402 59.5093C33.4405 59.5316 33.513 59.6543 33.513 59.777C33.513 59.8996 33.4405 60 33.29 60H26.6487C26.5037 60 26.4257 59.8996 26.4257 59.777C26.4257 59.6543 26.4981 59.5316 26.5985 59.5093C28.3606 59.0465 28.7286 58.6506 28.7286 56.9833V29.9554C28.7286 28.2881 28.3606 27.9201 26.5985 27.4294C26.4981 27.4071 26.4257 27.2844 26.4257 27.184C26.4257 27.0613 26.4981 26.961 26.6487 26.961H33.29C33.4349 26.961 33.513 27.0613 33.513 27.184C33.513 27.2844 33.4405 27.4071 33.3402 27.4294C31.5781 27.9201 31.21 28.2881 31.21 29.9554V43.1375H47.7045V29.9554C47.6822 28.2881 47.3141 27.9201 45.5465 27.4294C45.4461 27.4071 45.3736 27.2844 45.3736 27.184C45.3736 27.0613 45.4461 26.961 45.5967 26.961H52.2602C52.4052 26.961 52.4554 27.0613 52.4554 27.184C52.4554 27.2844 52.4052 27.4071 52.2825 27.4294C50.5428 27.9201 50.1524 28.2881 50.1524 29.9554V56.9833C50.1524 58.6506 50.5428 59.0409 52.2825 59.5093C52.4052 59.5316 52.4554 59.6543 52.4554 59.777C52.4554 59.8996 52.4052 60 52.2602 60H45.5911Z" fill="white"/>
<path d="M26.6487 43.1877C25.5613 44.8216 24.1952 46.0651 22.5613 46.9238C20.9275 47.777 19.2268 48.2063 17.4647 48.2063C16.974 48.2063 16.4275 48.1673 15.8309 48.0892C15.2342 48.0112 14.632 47.8885 14.0242 47.7212C13.4164 47.5539 12.8253 47.3309 12.2565 47.0576C11.6877 46.7844 11.1691 46.4665 10.7007 46.1041C10.4387 46.3383 10.1431 46.5781 9.80297 46.8234C9.4684 47.0688 9.08364 47.2974 8.65428 47.5037C8.22491 47.71 7.76208 47.8773 7.25465 48.0112C6.74721 48.1394 6.18402 48.2063 5.55948 48.2063C4.70632 48.2063 3.93123 48.0725 3.24535 47.7993C2.55948 47.526 1.97398 47.158 1.49442 46.6896C1.01487 46.2212 0.64684 45.6747 0.384758 45.039C0.128253 44.4033 0 43.723 0 42.9926C0 42.1394 0.16171 41.3309 0.48513 40.5781C0.80855 39.8253 1.24349 39.1283 1.78996 38.4758C2.33643 37.829 2.94981 37.2546 3.63569 36.7639C4.32156 36.2732 5.02974 35.8717 5.75465 35.5595C5.75465 34.7286 5.92751 33.8141 6.27881 32.816C6.63011 31.8178 7.11524 30.8866 7.73978 30.0167C8.36431 29.1468 9.08922 28.4219 9.92008 27.8364C10.7509 27.2509 11.6431 26.961 12.6022 26.961C13.3048 26.961 13.8848 27.1617 14.3532 27.5632C14.8216 27.9647 15.0558 28.5446 15.0558 29.2918C15.0558 29.9665 14.777 30.5967 14.2193 31.1766C13.6617 31.7621 12.9926 32.303 12.2175 32.8104C11.4424 33.3178 10.645 33.7639 9.82528 34.1543C9.01115 34.5446 8.35316 34.8792 7.86245 35.1636C7.89034 36.9257 8.26394 38.6152 8.98885 40.2212C9.71376 41.8271 10.6896 43.2547 11.9052 44.4981C12.8643 43.645 13.7342 42.7249 14.5093 41.7379C15.2844 40.7509 16.0316 39.8364 16.7454 38.9944C17.4591 38.1524 18.1729 37.4498 18.8866 36.8922C19.6004 36.3346 20.3587 36.0558 21.1617 36.0558C21.8364 36.0558 22.3996 36.2398 22.8569 36.6022C23.3086 36.9647 23.5372 37.4442 23.5372 38.0409C23.5372 38.2472 23.4814 38.4814 23.3643 38.7435C23.2472 39.0056 23.0967 39.2231 22.9182 39.4071C22.7119 38.9665 22.3717 38.5985 21.9089 38.2974C21.4405 38.0019 20.8717 37.8513 20.197 37.8513C19.7063 37.8513 19.2435 37.9461 18.8141 38.1413C18.3848 38.3364 17.9833 38.5929 17.6097 38.9219C17.2361 39.2454 16.8625 39.6134 16.5 40.0316C16.1375 40.4442 15.7751 40.8903 15.4126 41.3532C14.2472 42.7305 13.1822 43.868 12.223 44.777C13.0037 45.5576 13.9349 46.2156 15.0223 46.7621C16.1097 47.3086 17.2249 47.5762 18.368 47.5762C19.171 47.5762 19.9628 47.4591 20.7435 47.2249C21.5186 46.9907 22.2602 46.6673 22.9628 46.2546C23.6654 45.842 24.3123 45.3625 24.9089 44.816C25.5056 44.2695 26.0242 43.6729 26.4647 43.026L26.6487 43.1877ZM2.10223 42.3736C2.10223 42.9981 2.19703 43.6059 2.39219 44.2026C2.58736 44.7993 2.86059 45.3234 3.20632 45.7807C3.55762 46.2323 3.97584 46.5948 4.47212 46.868C4.96283 47.1413 5.52045 47.2751 6.14498 47.2751C7.10409 47.2751 7.91822 47.1301 8.59851 46.8457C9.27323 46.5613 9.85874 46.2212 10.3494 45.8364C8.92193 44.6431 7.80112 43.171 6.98699 41.4201C6.17286 39.6691 5.76022 37.8625 5.76022 35.9944C5.16357 36.2565 4.63941 36.6134 4.18216 37.0651C3.73048 37.5167 3.34573 38.0297 3.03346 38.5985C2.72119 39.1673 2.48699 39.7807 2.33085 40.4275C2.1803 41.0744 2.10223 41.7268 2.10223 42.3736ZM13.5 29.1078C13.5 27.9926 13.0316 27.4349 12.1004 27.4349C11.5316 27.4349 10.9238 27.7026 10.2937 28.2323C9.65799 28.7621 9.12268 29.5372 8.68216 30.5465C8.29182 31.4554 8.05762 32.2528 7.97955 32.9387C7.90149 33.6245 7.86245 34.2268 7.86245 34.7454C8.61524 34.4108 9.33457 34.0595 10.0204 33.697C10.7063 33.3346 11.3085 32.9331 11.8271 32.4926C12.3457 32.052 12.7528 31.5558 13.0539 30.9926C13.3494 30.4349 13.5 29.8048 13.5 29.1078Z" fill="white"/>
<path d="M41.4703 33.0558L19.4944 3.99256V29.5539C19.4944 31.7844 20.8885 32.4926 22.974 32.5929C23.0967 32.5929 23.1691 32.7156 23.1691 32.816C23.1691 32.9387 23.0967 33.0613 22.9461 33.0613H16.1599C16.0149 33.0613 15.9368 32.9387 15.9368 32.8383C15.9368 32.7156 16.0093 32.5929 16.1097 32.5929C17.9498 32.2751 18.7305 31.2714 18.7305 29.4591V2.93866C18.0223 1.98513 17.0911 0.635688 15.7639 0.585502C15.5911 0.563197 15.4963 0.412639 15.4963 0.267658C15.4963 0.144981 15.5688 0.0223048 15.7416 0.0223048L17.1134 0C19.4665 0 19.8067 0.295539 21.2063 2.13011L41.448 28.9405V3.03903C41.4257 1.37175 40.1989 0.613383 37.9461 0.513011C37.8457 0.513011 37.7732 0.390335 37.7732 0.289963C37.7732 0.167286 37.8457 0.0446097 37.9963 0.0446097H44.342C44.487 0.0446097 44.5651 0.144981 44.5651 0.267658C44.5651 0.36803 44.4926 0.490706 44.3922 0.513011C42.6524 0.881041 42.2621 1.37175 42.2342 3.03903V32.9331C42.2342 33.2286 42.039 33.3234 41.8885 33.3234C41.7379 33.3234 41.5929 33.2063 41.4703 33.0558Z" fill="white"/>
</svg>
