<svg width="24" height="20" viewBox="0 0 24 20" fill="none" xmlns="http://www.w3.org/2000/svg">
<path d="M7.19773 19.9476C8.08958 20.222 9.59887 19.3987 10.2163 17.9581C10.2849 17.8894 10.3535 17.615 10.5593 16.243C11.1768 12.7442 11.5198 11.3721 12 10.343C12.5488 11.0977 13.1663 12.4697 14.3325 15.9685C14.8128 17.3406 14.8814 17.615 14.95 17.615C15.8418 18.9871 17.4197 19.6732 18.1744 19.1929C18.9976 18.5755 18.9976 16.8604 18.1058 15.4883C18.1058 15.4883 18.0371 15.4883 17.7627 15.2139C14.8128 12.95 13.0291 11.2349 12.2744 10.1372C13.3721 9.93139 15.3616 10.2744 19.2034 11.0977C19.9581 11.3035 20.0953 11.3035 20.0953 11.3035C21.6732 11.0977 22.908 10.1372 23.1138 9.24536C22.8394 8.2163 21.3987 7.32445 19.8209 7.53026C19.8209 7.53026 19.6836 7.59886 18.8604 7.87328C15.293 9.17675 13.4407 9.79419 12.2744 9.86279C12.6174 8.97094 13.7151 7.59886 16.2534 4.7861C17.0767 3.89425 17.2139 3.68844 17.2139 3.61983C17.9685 2.17915 17.5569 0.395451 16.8023 0.0524317C15.9104 -0.221984 14.4011 0.601264 13.7837 2.04194C13.7151 2.11055 13.7151 2.38497 13.4407 3.75704C12.8232 7.11864 12.4802 8.62792 12 9.65698C11.4512 8.90234 10.9023 7.46166 9.59887 3.89425C9.25585 2.59078 9.11864 2.45357 9.05004 2.38497C8.15819 0.944283 6.5803 0.326848 5.75705 0.87568C5.00241 1.42451 5.0024 3.13961 5.89426 4.51169C5.89426 4.51169 6.03146 4.58029 6.37448 4.8547C9.32445 7.25584 10.9709 8.76513 11.7256 9.86279C10.6965 10.0686 8.77562 9.72559 4.9338 8.90234C4.11055 8.69653 3.97335 8.69653 3.90474 8.69653C2.32685 8.90234 1.09198 9.79419 0.886169 10.8232C1.16059 11.7151 2.60127 12.6756 4.17916 12.4697L5.20822 12.1267C8.77562 10.7546 10.5593 10.2058 11.7256 10.1372C11.3826 11.0291 10.2163 12.5383 7.54075 15.4883C6.92331 16.243 6.78611 16.3802 6.78611 16.3802C6.03146 17.8208 6.44309 19.6045 7.19773 19.9476Z" fill="#517237"/>
</svg>
